<svg xmlns="http://www.w3.org/2000/svg" viewBox="0 0 473 96" width="473" height="96">
  <g transform="scale(3.193) translate(-16.64,-14.96)" fill="#C6FF00">
    <path d="m18.19,43.51c1.57,1.57,4.13,1.57,5.71-.01,1.58-1.58,1.59-4.14.01-5.71-1.57-1.57-4.13-1.57-5.71.01-1.58,1.58-1.59,4.14-.01,5.71Z"></path>
    <path d="m46.7,39.67v-.08s-14.64,1.31-14.64,1.31l14.65-6.86v-6.12s-16.98,7.95-16.98,7.95l16.79-16.79c-.54-1.89-2.03-3.37-3.91-3.91l-16.79,16.79,7.95-17h-6.12s-6.86,14.66-6.86,14.66l1.31-14.64h-.08c-2.94,0-5.34,2.4-5.35,5.35l-.03,13.78c3.07-2.09,7.29-1.78,9.99.92,2.71,2.71,3.01,6.92.92,9.99l13.78-.03c2.94,0,5.34-2.4,5.35-5.35h0Z"></path>
  </g>
  <g transform="translate(115.6,81.4)" fill="#000000">
    <path d="M50.195 0L8.398 0L8.398-68.018L21.387-68.018L21.387-10.986L50.195-10.986L50.195 0ZM56.445-14.502L56.445-14.502Q56.445-20.703 60.742-25.195Q65.039-29.688 73.145-30.420L73.145-30.420L87.256-31.592L87.256-34.912Q87.256-38.916 85.107-40.698Q82.959-42.480 79.248-42.480L79.248-42.480Q75.439-42.480 73.047-40.649Q70.654-38.818 70.654-35.303L70.654-35.303L58.154-35.303Q58.252-39.502 59.961-42.651Q61.670-45.801 64.502-47.900Q67.334-50 71.240-51.099Q75.146-52.197 79.736-52.197L79.736-52.197Q88.916-52.197 94.238-47.754Q99.561-43.311 99.561-34.717L99.561-34.717L99.561-9.717L108.154-9.717L108.154 0L88.477 0L88.379-7.910L87.939-7.910Q85.742-3.711 82.104-1.245Q78.467 1.221 72.559 1.221L72.559 1.221Q69.043 1.221 66.138 0.049Q63.232-1.123 61.035-3.223Q58.838-5.322 57.642-8.154Q56.445-10.986 56.445-14.502ZM69.434-17.480L69.434-13.086Q69.434-10.791 71.533-9.644Q73.633-8.496 76.953-8.496L76.953-8.496Q81.738-8.496 84.497-11.890Q87.256-15.283 87.256-20.117L87.256-20.117L87.256-22.119L72.266-20.801Q69.482-20.508 69.434-17.480L69.434-17.480ZM129.346 0L116.846 0L116.846-50.977L129.346-50.977L129.346-43.604Q131.641-47.705 135.327-49.951Q139.014-52.197 144.434-52.197L144.434-52.197Q153.027-52.197 157.080-47.192Q161.133-42.188 161.133-33.398L161.133-33.398L161.133 0L148.633 0L148.633-32.520Q148.633-37.012 146.729-39.502Q144.824-41.992 140.332-41.992L140.332-41.992Q135.156-41.992 132.251-38.550Q129.346-35.107 129.346-29.492L129.346-29.492L129.346 0ZM181.396-41.309L171.289-41.309L171.289-50.977L181.396-50.977L181.396-68.018L193.896-68.018L193.896-50.977L206.592-50.977L206.592-41.309L193.896-41.309L193.896-9.717L206.592-9.717L206.592 0L181.396 0L181.396-41.309ZM215.869-25.586L215.869-25.586Q215.869-31.592 217.529-36.499Q219.189-41.406 222.192-44.897Q225.195-48.389 229.443-50.293Q233.691-52.197 238.867-52.197L238.867-52.197Q244.043-52.197 248.267-50.342Q252.490-48.486 255.493-45.239Q258.496-41.992 260.083-37.500Q261.670-33.008 261.670-27.783L261.670-27.783L261.670-21.484L228.906-21.484L228.906-18.115Q228.906-13.525 231.909-11.011Q234.912-8.496 239.014-8.496L239.014-8.496Q243.115-8.496 245.703-10.645Q248.291-12.793 248.779-16.699L248.779-16.699L261.279-16.699Q260.059-8.203 254.126-3.491Q248.193 1.221 238.867 1.221L238.867 1.221Q233.447 1.221 229.175-0.732Q224.902-2.686 221.948-6.201Q218.994-9.717 217.432-14.648Q215.869-19.580 215.869-25.586ZM228.906-33.008L228.906-31.201L248.877-31.201L248.877-33.008Q248.877-37.207 246.045-39.844Q243.213-42.480 238.867-42.480L238.867-42.480Q234.570-42.480 231.738-39.844Q228.906-37.207 228.906-33.008L228.906-33.008ZM286.670 0L274.170 0L274.170-50.977L302.637-50.977L302.637-41.211L286.670-41.211L286.670 0ZM325.342 0L312.842 0L312.842-50.977L325.342-50.977L325.342-43.604Q327.637-47.705 331.323-49.951Q335.010-52.197 340.430-52.197L340.430-52.197Q349.023-52.197 353.076-47.192Q357.129-42.188 357.129-33.398L357.129-33.398L357.129 0L344.629 0L344.629-32.520Q344.629-37.012 342.725-39.502Q340.820-41.992 336.328-41.992L336.328-41.992Q331.152-41.992 328.247-38.550Q325.342-35.107 325.342-29.492L325.342-29.492L325.342 0Z"></path>
  </g>
</svg>